# xmcd CD database file
#
# Track frame offsets:
#	150
#	26466
#	47454
#	71456
#	100590
#	140159
#
# Disc length: 2759 seconds
#
# Revision: 0
# Processed by: cddbd v1.4PL0 Copyright (c) Steve Scherf et al.
# Submitted via: CDex 1.50Beta3
#
DISCID=470ac506
DTITLE=Sky - Dreams
DYEAR=1988
DGENRE=New Age
TTITLE0=Tibet
TTITLE1=Sunshine on Ios
TTITLE2=Old Ages
TTITLE3=Completion
TTITLE4=Gentle Sorrow
TTITLE5=The Shores of the High Priestess
EXTD=YEAR: 1988
EXTT0=
EXTT1=
EXTT2=
EXTT3=
EXTT4=
EXTT5=
PLAYORDER=
